<svg width="510.4560546875px" height="168.39915466308594px" xmlns="http://www.w3.org/2000/svg" viewBox="-5.22802734375 -9.199577331542969 510.4560546875 168.39915466308594" style="background: rgba(0, 0, 0, 0);" preserveAspectRatio="xMidYMid"><defs><filter id="editing-metal-beveled"><feGaussianBlur stdDeviation="4" in="SourceAlpha" result="blur"></feGaussianBlur><feSpecularLighting surfaceScale="5" specularConstant="0.8" specularExponent="7.5" lighting-color="#000000" in="blur" result="specular"><fePointLight x="-250" y="-50" z="300"></fePointLight></feSpecularLighting><feComposite operator="in" in="specular" in2="SourceAlpha" result="comp"></feComposite><feComposite in="SourceGraphic" in2="comp" operator="arithmetic" k1="0" k2="1" k3="1" k4="0"></feComposite></filter></defs><g filter="url(#editing-metal-beveled)"><g transform="translate(69.68000304698944, 107.2400016784668)"><path d="M32.64 1.12L32.64 1.12Q17.52 1.12 9.32-6.56L9.32-6.56L9.32-6.56Q1.12-14.24 1.12-31.12L1.12-31.12L1.12-31.12Q1.12-63.36 32.48-63.36L32.48-63.36L32.48-63.36Q40.08-63.36 46.60-61.52L46.60-61.52L46.60-61.52Q53.12-59.68 56.32-57.44L56.32-57.44L56.32-37.44L37.12-37.44L37.12-43.20L37.12-43.20Q37.12-46.24 35.76-47.68L35.76-47.68L35.76-47.68Q34.40-49.12 31.68-49.12L31.68-49.12L31.68-49.12Q28.96-49.12 27.60-47.68L27.60-47.68L27.60-47.68Q26.24-46.24 26.24-43.20L26.24-43.20L26.24-19.04L26.24-19.04Q26.24-16 27.60-14.56L27.60-14.56L27.60-14.56Q28.96-13.12 31.68-13.12L31.68-13.12L31.68-13.12Q34.40-13.12 35.76-14.56L35.76-14.56L35.76-14.56Q37.12-16 37.12-19.04L37.12-19.04L37.12-25.52L56.32-25.52L56.32-4.80L56.32-4.80Q53.04-2.56 46.60-0.72L46.60-0.72L46.60-0.72Q40.16 1.12 32.64 1.12L32.64 1.12ZM84.64 0.08L59.20 0.08L59.20-13.12L62.72-13.12L62.72-49.12L59.20-49.12L59.20-62.24L81.12-62.24L81.12-13.12L84.64-13.12L84.64 0.08ZM111.04 1.12L111.04 1.12Q99.68 1.12 93.28-4.84L93.28-4.84L93.28-4.84Q86.88-10.80 86.88-22.24L86.88-22.24L86.88-22.24Q86.88-33.68 93.28-39.64L93.28-39.64L93.28-39.64Q99.68-45.60 111.04-45.60L111.04-45.60L111.04-45.60Q122.56-45.60 128.88-39.56L128.88-39.56L128.88-39.56Q135.20-33.52 135.20-22.24L135.20-22.24L135.20-22.24Q135.20-10.80 128.80-4.84L128.80-4.84L128.80-4.84Q122.40 1.12 111.04 1.12L111.04 1.12ZM111.04-13.12L111.04-13.12Q113.36-13.12 114.52-14.36L114.52-14.36L114.52-14.36Q115.68-15.60 115.68-18.24L115.68-18.24L115.68-26.24L115.68-26.24Q115.68-28.88 114.52-30.12L114.52-30.12L114.52-30.12Q113.36-31.36 111.04-31.36L111.04-31.36L111.04-31.36Q108.72-31.36 107.56-30.12L107.56-30.12L107.56-30.12Q106.40-28.88 106.40-26.24L106.40-26.24L106.40-18.24L106.40-18.24Q106.40-15.60 107.56-14.36L107.56-14.36L107.56-14.36Q108.72-13.12 111.04-13.12L111.04-13.12ZM215.04-13.12L218.56-13.12L218.56 0L193.28 0L193.28-13.12L196.64-13.12L196.64-26.24L196.64-26.24Q196.64-28.88 195.52-30.12L195.52-30.12L195.52-30.12Q194.40-31.36 192.16-31.36L192.16-31.36L192.16-31.36Q187.36-31.36 187.36-26.24L187.36-26.24L187.36-13.12L190.72-13.12L190.72 0L165.60 0L165.60-13.12L168.96-13.12L168.96-26.24L168.96-26.24Q168.96-28.88 167.84-30.12L167.84-30.12L167.84-30.12Q166.72-31.36 164.48-31.36L164.48-31.36L164.48-31.36Q159.68-31.36 159.68-26.24L159.68-26.24L159.68-13.12L163.04-13.12L163.04 0L137.76 0L137.76-13.12L141.28-13.12L141.28-31.36L137.76-31.36L137.76-44.48L159.68-44.48L159.68-38.24L159.68-38.24Q165.44-45.60 174.08-45.60L174.08-45.60L174.08-45.60Q178.96-45.60 182.04-43.32L182.04-43.32L182.04-43.32Q185.12-41.04 186.40-36.88L186.40-36.88L186.40-36.88Q189.28-41.04 193-43.28L193-43.28L193-43.28Q196.72-45.52 201.76-45.52L201.76-45.52L201.76-45.52Q208.40-45.52 211.72-41.36L211.72-41.36L211.72-41.36Q215.04-37.20 215.04-29.92L215.04-29.92L215.04-13.12ZM264.24-13.12L267.76-13.12L267.76 0L246.64 0L246.64-5.44L246.64-5.44Q244.88-2.88 241.72-0.88L241.72-0.88L241.72-0.88Q238.56 1.12 234 1.12L234 1.12L234 1.12Q228 1.12 224.56-2.08L224.56-2.08L224.56-2.08Q221.12-5.28 221.12-11.12L221.12-11.12L221.12-11.12Q221.12-26.24 246.80-26.64L246.80-26.64L246.80-26.64Q246.56-29.36 244.72-30.36L244.72-30.36L244.72-30.36Q242.88-31.36 238.48-31.36L238.48-31.36L238.48-31.36Q234.88-31.36 230.76-30.60L230.76-30.60L230.76-30.60Q226.64-29.84 223.20-28.56L223.20-28.56L223.20-43.28L223.20-43.28Q227.44-44.32 232.40-44.96L232.40-44.96L232.40-44.96Q237.36-45.60 242.08-45.60L242.08-45.60L242.08-45.60Q254-45.60 259.12-41.28L259.12-41.28L259.12-41.28Q264.24-36.96 264.24-27.92L264.24-27.92L264.24-13.12ZM246.64-18.24L246.64-18.72L246.64-18.72Q243.04-18.72 241.08-17.76L241.08-17.76L241.08-17.76Q239.12-16.80 239.12-14.56L239.12-14.56L239.12-14.56Q239.12-13.20 239.96-12.36L239.96-12.36L239.96-12.36Q240.80-11.52 242.32-11.52L242.32-11.52L242.32-11.52Q244.40-11.52 245.52-13.28L245.52-13.28L245.52-13.28Q246.64-15.04 246.64-18.24L246.64-18.24ZM319.92-13.12L323.44-13.12L323.44 0L298.16 0L298.16-13.12L301.52-13.12L301.52-26.24L301.52-26.24Q301.52-28.88 300.40-30.12L300.40-30.12L300.40-30.12Q299.28-31.36 297.04-31.36L297.04-31.36L297.04-31.36Q292.24-31.36 292.24-26.24L292.24-26.24L292.24-13.12L295.60-13.12L295.60 0L270.32 0L270.32-13.12L273.84-13.12L273.84-31.36L270.32-31.36L270.32-44.48L292.24-44.48L292.24-38.24L292.24-38.24Q298-45.60 306.64-45.60L306.64-45.60L306.64-45.60Q313.28-45.60 316.60-41.44L316.60-41.44L316.60-41.44Q319.92-37.28 319.92-30L319.92-30L319.92-13.12ZM345.76 1.12L345.76 1.12Q337.28 1.12 333-3L333-3L333-3Q328.72-7.12 328.72-16.88L328.72-16.88L328.72-31.36L325.20-31.36L325.20-44.48L325.20-44.48Q328.24-44.48 329.76-46.04L329.76-46.04L329.76-46.04Q331.28-47.60 331.28-50.32L331.28-50.32L331.28-53.92L348.24-53.92L348.24-44.48L359.04-44.48L359.04-31.36L348.24-31.36L348.24-18.24L348.24-18.24Q348.24-15.60 349.40-14.36L349.40-14.36L349.40-14.36Q350.56-13.12 352.88-13.12L352.88-13.12L352.88-13.12Q355.92-13.12 359.52-13.84L359.52-13.84L359.52-1.28L359.52-1.28Q357.28-0.40 353.48 0.36L353.48 0.36L353.48 0.36Q349.68 1.12 345.76 1.12L345.76 1.12Z" fill="#000000"></path></g></g><style>text {
  font-size: 64px;
  font-family: Arial Black;
  dominant-baseline: central;
  text-anchor: middle;
}</style></svg>